<svg xmlns="http://www.w3.org/2000/svg" width="14" height="14" viewBox="0 0 14 14">
  <path id="icon_social_notifications_active_24px" data-name="icon/social/notifications_active_24px" d="M5.6,12.564H8.4a1.4,1.4,0,1,1-2.808,0Zm-4.213-.718v-.717l1.4-1.436V6.1a4.36,4.36,0,0,1,3.16-4.538V1.077a1.053,1.053,0,1,1,2.106,0v.488A4.358,4.358,0,0,1,11.212,6.1V9.692l1.4,1.436v.717ZM12.6,5.744a6.134,6.134,0,0,0-2.485-4.61l1-1.026A7.579,7.579,0,0,1,14,5.744ZM0,5.744A7.534,7.534,0,0,1,2.893.108l1,1.026A6.1,6.1,0,0,0,1.4,5.744Z"/>
</svg>
