<svg xmlns="http://www.w3.org/2000/svg" width="20.6" height="20.6" viewBox="0 0 20.6 20.6">
  <g id="Group_17" data-name="Group 17" transform="translate(0.5 0.5)">
    <path id="Path" d="M19.022,9.388,10.2.568A1.948,1.948,0,0,0,8.82,0H1.96A1.966,1.966,0,0,0,0,1.96V8.82a1.956,1.956,0,0,0,.578,1.392l8.82,8.82a1.948,1.948,0,0,0,1.382.568,1.916,1.916,0,0,0,1.382-.578l6.86-6.86A1.916,1.916,0,0,0,19.6,10.78,1.979,1.979,0,0,0,19.022,9.388Z" fill="#fff" stroke="rgba(0,0,0,0.2)" stroke-miterlimit="10" stroke-width="1"/>
    <path id="Path-2" data-name="Path" d="M8.82,15.7,0,6.87V.01H6.86V0l8.82,8.82L8.82,15.7Z" transform="translate(1.96 1.95)" fill="#fff" stroke="rgba(0,0,0,0.2)" stroke-miterlimit="10" stroke-width="1"/>
    <path id="Path-3" data-name="Path" d="M1.47,0A1.47,1.47,0,1,0,2.94,1.47,1.47,1.47,0,0,0,1.47,0Z" transform="translate(2.94 2.94)" fill="#fff" stroke="rgba(0,0,0,0.2)" stroke-miterlimit="10" stroke-width="1"/>
  </g>
</svg>

