<svg xmlns="http://www.w3.org/2000/svg" width="15" height="15" viewBox="0 0 15 15">
  <g id="Group_16" data-name="Group 16" transform="translate(0.5 0.5)">
    <path id="Path" d="M13.587,6.706l-6.3-6.3A1.391,1.391,0,0,0,6.3,0H1.4A1.4,1.4,0,0,0,0,1.4V6.3a1.4,1.4,0,0,0,.413.994l6.3,6.3A1.391,1.391,0,0,0,7.7,14a1.369,1.369,0,0,0,.987-.413l4.9-4.9A1.369,1.369,0,0,0,14,7.7,1.414,1.414,0,0,0,13.587,6.706Z" fill="#d98612" stroke="rgba(255, 255, 255, 0.2)" stroke-miterlimit="10" stroke-width="1"/>
    <path id="Path-2" data-name="Path" d="M6.3,11.214,0,4.907V.007H4.9V0l6.3,6.3L6.3,11.214Z" transform="translate(1.4 1.393)" fill="#d98612" stroke="rgba(255, 255, 255, 0.2)" stroke-miterlimit="10" stroke-width="1"/>
    <path id="Path-3" data-name="Path" d="M1.05,0A1.05,1.05,0,1,0,2.1,1.05,1.05,1.05,0,0,0,1.05,0Z" transform="translate(2.1 2.1)" fill="#d98612" stroke="rgba(255, 255, 255, 0.2)" stroke-miterlimit="10" stroke-width="1"/>
  </g>
</svg>
