<svg id="icon_communication_phone_24px_2" data-name="icon/communication/phone_24px 2" xmlns="http://www.w3.org/2000/svg" xmlns:xlink="http://www.w3.org/1999/xlink" width="18" height="18" viewBox="0 0 18 18">
  <defs>
    <clipPath id="clip-path">
      <path id="icon_communication_phone_24px" data-name="icon/communication/phone_24px" d="M0,1A1,1,0,0,1,1,0H4.5a1,1,0,0,1,1,1,11.367,11.367,0,0,0,.57,3.57A1,1,0,0,1,5.82,5.59l-2.2,2.2a15.151,15.151,0,0,0,6.59,6.59l2.2-2.2a1.024,1.024,0,0,1,.71-.29.828.828,0,0,1,.31.05,11.413,11.413,0,0,0,3.57.57,1,1,0,0,1,1,1V17a1,1,0,0,1-1,1A17,17,0,0,1,0,1Z" fill="#34432d"/>
    </clipPath>
  </defs>
  <g id="icon_communication_phone_24px_2-2" data-name="icon/communication/phone_24px 2">
    <path id="icon_communication_phone_24px-2" data-name="icon/communication/phone_24px" d="M0,1A1,1,0,0,1,1,0H4.5a1,1,0,0,1,1,1,11.367,11.367,0,0,0,.57,3.57A1,1,0,0,1,5.82,5.59l-2.2,2.2a15.151,15.151,0,0,0,6.59,6.59l2.2-2.2a1.024,1.024,0,0,1,.71-.29.828.828,0,0,1,.31.05,11.413,11.413,0,0,0,3.57.57,1,1,0,0,1,1,1V17a1,1,0,0,1-1,1A17,17,0,0,1,0,1Z" fill="#34432d"/>
  </g>
</svg>
