<svg id="reception-bell" xmlns="http://www.w3.org/2000/svg" width="88" height="84" viewBox="0 0 88 84">
  <path id="Shape" d="M1.467,71A1.473,1.473,0,0,1,0,69.521V66.562a4.419,4.419,0,0,1,4.4-4.437H35.673l1.76-4.438H4.4a1.473,1.473,0,0,1-1.467-1.479V53.25A4.427,4.427,0,0,1,5.9,49.076,38.336,38.336,0,0,1,42.533,11.87v-3H39.6A4.438,4.438,0,0,1,39.6,0h8.8a4.438,4.438,0,0,1,0,8.875H45.467v3A38.336,38.336,0,0,1,82.1,49.076a4.427,4.427,0,0,1,2.965,4.174v2.958A1.473,1.473,0,0,1,83.6,57.687H50.567l1.759,4.438H83.6A4.419,4.419,0,0,1,88,66.562v2.958A1.473,1.473,0,0,1,86.533,71Z" transform="translate(0 13)" fill="#fff"/>
  <path id="Path" d="M14.64,0A31.25,31.25,0,0,0,0,17.055L2.688,18A28.419,28.419,0,0,1,16,2.495Z" transform="translate(14 35)" fill="#fff"/>
  <path id="Path-2" data-name="Path" d="M2.358,0A24.454,24.454,0,0,0,0,.859L.859,3A22.226,22.226,0,0,1,3,2.22Z" transform="translate(31 32)" fill="#fff"/>
  <rect id="Rectangle" width="3" height="8" transform="translate(43)" fill="#fff"/>
  <rect id="Rectangle-2" data-name="Rectangle" width="8" height="3" transform="translate(25 15)" fill="#fff"/>
  <path id="Rectangle-3" data-name="Rectangle" d="M.021.007,2.961,0,2.94,8.821,0,8.828Z" transform="translate(27.922 5.115) rotate(-45)" fill="#fff"/>
  <path id="Rectangle-4" data-name="Rectangle" d="M.007.021,8.828,0,8.821,2.94,0,2.961Z" transform="translate(51.742 9.261) rotate(-45)" fill="#fff"/>
  <rect id="Rectangle-5" data-name="Rectangle" width="8" height="3" transform="translate(55 15)" fill="#fff"/>
</svg>
