<svg id="Group" xmlns="http://www.w3.org/2000/svg" width="88.372" height="55.454" viewBox="0 0 88.372 55.454">
  <path id="Path" d="M0,0H5.91V1.158H3.59V8.6H2.32V1.158H0Z" transform="translate(0 37.263)" fill="#fff"/>
  <path id="Path-2" data-name="Path" d="M6.02,4.8H1.215V8.6H0V0H1.215V3.638H6.02V0H7.235V8.6H6.02Z" transform="translate(9.666 37.263)" fill="#fff"/>
  <path id="Path-3" data-name="Path" d="M4.087,3.638V4.8H1.27V7.442H5.081V8.6H0V0H4.916V1.158H1.27V3.638Z" transform="translate(21.596 37.263)" fill="#fff"/>
  <path id="Path-4" data-name="Path" d="M1.27,7.442H5.081V8.6H0V0H1.27Z" transform="translate(45.291 37.263)" fill="#fff"/>
  <rect id="Rectangle" width="1.215" height="8.599" transform="translate(63.849 37.263)" fill="#fff"/>
  <path id="Path-5" data-name="Path" d="M1.215,2.26V8.6H0V0H.884L6.02,6.339V0h1.27V8.6H6.407Z" transform="translate(69.924 37.263)" fill="#fff"/>
  <path id="Shape" d="M0,8.6V0H3.259A2.784,2.784,0,0,1,4.971.607a2.57,2.57,0,0,1,.94,2.039,2.627,2.627,0,0,1-.94,1.985,2.666,2.666,0,0,1-1.712.607H1.215V8.6Z" transform="translate(54.183 37.263)" fill="#fff"/>
  <path id="Shape-2" data-name="Shape" d="M6.683,8.6,5.91,6.615H2.1L1.27,8.6H0L3.535,0h.884L7.953,8.6Z" transform="translate(33.692 37.263)" fill="#fff"/>
  <path id="Shape-3" data-name="Shape" d="M6.738,8.6,5.91,6.615H2.1L1.27,8.6H0L3.59,0h.829l3.59,8.6Z" transform="translate(80.363 37.263)" fill="#fff"/>
  <path id="Path-6" data-name="Path" d="M.387,3.307a1.336,1.336,0,0,0,1.049.551A.735.735,0,0,0,2.209,3.2c0-.661-.884-.717-1.491-1.1a1.067,1.067,0,0,1-.552-.937A1.246,1.246,0,0,1,1.491,0a1.617,1.617,0,0,1,1.16.441L2.265.882A1.035,1.035,0,0,0,1.491.606c-.331,0-.718.22-.718.551,0,.551.939.661,1.491,1.047a1.135,1.135,0,0,1,.552.992A1.262,1.262,0,0,1,1.491,4.465,1.943,1.943,0,0,1,0,3.748Z" transform="translate(35.57 50.934)" fill="#fff"/>
  <path id="Path-7" data-name="Path" d="M0,0H2.927V.551H1.767V4.3H1.16V.551H0Z" transform="translate(39.878 51.044)" fill="#fff"/>
  <path id="Shape-4" data-name="Shape" d="M0,4.3V0H1.27A2.82,2.82,0,0,1,2.761.386,2.139,2.139,0,0,1,3.645,2.15a2.339,2.339,0,0,1-.828,1.764A2.2,2.2,0,0,1,1.326,4.3Z" transform="translate(54.846 51.044)" fill="#fff"/>
  <path id="Path-8" data-name="Path" d="M3.259,2.15V3.363a1.514,1.514,0,0,1-1.049.386,1.536,1.536,0,0,1-1.6-1.6A1.523,1.523,0,0,1,2.154.551a1.724,1.724,0,0,1,1.16.5L3.7.661A2.217,2.217,0,0,0,2.154,0,2.167,2.167,0,0,0,0,2.2a2.146,2.146,0,0,0,2.209,2.2,2.161,2.161,0,0,0,1.657-.772V2.2H3.259Z" transform="translate(29.936 51.044)" fill="#fff"/>
  <path id="Shape-5" data-name="Shape" d="M3.37,4.3l-.387-.992H1.049L.662,4.3H0L1.768,0H2.21L4.032,4.3Z" transform="translate(49.157 51.044)" fill="#fff"/>
  <path id="Shape-6" data-name="Shape" d="M3.314,4.3l-.331-.992H1.049L.662,4.3H0L1.768,0H2.21L3.977,4.3Z" transform="translate(43.855 51.044)" fill="#fff"/>
  <path id="Shape-7" data-name="Shape" d="M9.279,23.979a4.984,4.984,0,0,1-4.64-4.631A5.009,5.009,0,0,1,0,14.332,5.1,5.1,0,0,1,4.694,9.261a4.986,4.986,0,0,1,4.64-4.631A5.01,5.01,0,0,1,14.36,0a5.106,5.106,0,0,1,5.081,4.685,4.984,4.984,0,0,1,4.639,4.63,4.836,4.836,0,0,1,4.529,5.016,5.047,5.047,0,0,1-4.639,5.017,4.984,4.984,0,0,1-4.639,4.631,5.043,5.043,0,0,1-10.052,0Z" transform="translate(29.826)" fill="#fff"/>
</svg>
